<?xml version="1.0" encoding="UTF-8" standalone="no"?>
<!DOCTYPE svg PUBLIC "-//W3C//DTD SVG 1.1//EN" "http://www.w3.org/Graphics/SVG/1.1/DTD/svg11.dtd">
<svg width="100%" height="100%" viewBox="0 0 409 673" version="1.1" xmlns="http://www.w3.org/2000/svg" xmlns:xlink="http://www.w3.org/1999/xlink" xml:space="preserve" xmlns:serif="http://www.serif.com/" style="fill-rule:evenodd;clip-rule:evenodd;stroke-linejoin:round;stroke-miterlimit:2;">
    <g transform="matrix(1,0,0,1,-1469.53,-182.714)">
        <g id="logo-codecafe.svg" serif:id="logo codecafe.svg" transform="matrix(1,0,0,1,1376.86,389.575)">
            <clipPath id="_clip1">
                <rect x="92.668" y="-206.86" width="408.996" height="672.83"/>
            </clipPath>
            <g clip-path="url(#_clip1)">
                <g transform="matrix(1,0,0,1,-513,-493.5)">
                    <clipPath id="_clip2">
                        <rect x="0" y="0" width="1026" height="987"/>
                    </clipPath>
                    <g clip-path="url(#_clip2)">
                        <g id="Artboard1" transform="matrix(0.72766,0,0,0.974327,-122.974,-123.988)">
                            <rect x="169" y="127.255" width="1410" height="1012.75" style="fill:none;"/>
                            <g transform="matrix(-5.72612,0,0,4.27646,28218.7,-18038.3)">
                                <path d="M4749,4319L4717,4319L4657.15,4397L4720,4476.85L4749,4476.85L4694,4397L4749,4319Z" style="fill:rgb(11,231,128);"/>
                                <path d="M4749,4319L4717,4319L4657.15,4397L4720,4476.85L4749,4476.85L4694,4397L4749,4319ZM4729.71,4329L4721.93,4329C4712.23,4341.65 4681.64,4381.51 4669.82,4396.92C4682.17,4412.62 4714.79,4454.06 4724.86,4466.85L4729.97,4466.85L4685.76,4402.67C4683.39,4399.22 4683.41,4394.66 4685.83,4391.24C4685.83,4391.24 4713.64,4351.79 4729.71,4329Z" style="fill:rgb(11,231,128);"/>
                            </g>
                        </g>
                    </g>
                </g>
            </g>
        </g>
    </g>
</svg>
